if (_typeface_js && _typeface_js.loadFace) _typeface_js.loadFace({"glyphs":{"0":{"ha":1218,"x_min":56,"x_max":1161,"o":"m 1144 661 q 1108 347 1161 494 q 956 114 1054 199 q 864 54 911 75 q 644 6 761 7 q 425 46 526 4 q 246 165 328 86 q 117 347 164 244 q 67 520 79 425 q 72 723 56 615 q 135 928 89 831 q 368 1188 221 1104 q 547 1240 449 1233 q 733 1213 646 1247 q 890 1125 810 1186 q 1021 994 964 1074 q 1144 661 1125 850 m 807 281 q 872 411 851 331 q 878 576 892 492 q 808 740 865 668 q 661 846 750 813 q 508 840 582 878 q 388 719 433 803 q 336 560 346 646 q 347 413 326 474 q 419 280 369 339 q 533 197 469 221 q 681 197 604 172 q 807 281 757 221 z "},"1":{"ha":360,"x_min":50,"x_max":272,"o":"m 163 -3 q 67 79 85 -3 q 51 413 50 161 q 51 531 51 489 q 56 953 51 890 q 136 1183 68 1156 q 167 1189 150 1189 q 256 1111 240 1189 q 269 793 271 1033 q 269 661 269 708 q 270 539 269 610 q 272 423 271 468 q 272 321 272 378 q 270 227 272 264 q 263 149 268 190 q 251 84 258 108 q 231 38 243 60 q 202 7 219 17 q 163 -3 185 -3 z "},"2":{"ha":886,"x_min":68,"x_max":863,"o":"m 628 435 q 389 217 517 314 q 361 197 375 207 q 391 195 371 196 q 428 193 411 194 q 460 190 444 192 q 521 188 485 189 q 580 185 557 186 q 633 183 603 185 q 681 178 663 181 q 722 170 700 175 q 756 158 743 165 q 779 140 768 150 q 794 115 790 129 q 799 83 799 101 q 792 53 797 67 q 773 32 786 40 q 747 17 760 24 q 710 9 735 11 q 669 6 686 7 q 619 5 653 4 q 567 7 586 6 q 507 10 547 8 q 449 14 468 13 q 376 17 418 15 q 307 19 333 18 q 248 22 281 19 q 195 30 215 25 q 156 42 175 35 q 125 63 136 50 q 111 94 114 76 q 97 106 103 99 q 117 188 75 135 q 268 342 158 242 q 481 551 419 483 q 658 825 629 713 q 642 940 676 890 q 542 1011 607 989 q 415 1024 475 1029 q 308 999 354 1019 q 247 960 269 981 q 207 910 225 939 q 200 899 206 908 q 193 887 194 889 q 186 877 192 885 q 178 867 181 869 q 172 860 176 865 q 163 852 167 854 q 153 848 158 850 q 142 844 147 846 q 115 849 128 842 q 92 876 103 856 q 78 925 81 896 q 107 1043 69 976 q 218 1149 144 1110 q 396 1203 299 1193 q 608 1181 493 1213 q 804 1036 736 1138 q 851 915 840 986 q 844 786 863 843 q 806 681 829 731 q 749 583 783 631 q 692 508 714 535 q 628 435 671 482 z "},"3":{"ha":817,"x_min":29,"x_max":767,"o":"m 753 856 q 651 707 731 776 q 567 649 611 675 q 583 639 576 643 q 644 594 615 619 q 735 449 715 532 q 717 272 757 361 q 581 103 668 171 q 401 13 494 36 q 222 6 308 -10 q 124 44 165 17 q 63 101 82 72 q 65 181 29 154 q 101 192 81 192 q 142 185 122 192 q 192 172 161 179 q 250 164 222 165 q 407 200 328 160 q 490 258 451 222 q 547 335 529 293 q 515 471 579 414 q 481 496 499 485 q 450 510 465 504 q 372 526 422 519 q 294 539 322 533 q 235 553 265 544 q 191 577 204 563 q 178 613 178 592 q 178 614 178 614 q 180 628 178 621 q 188 642 182 635 q 199 654 193 649 q 216 667 204 660 q 236 678 228 674 q 261 691 244 683 q 289 703 278 699 q 321 718 300 708 q 356 733 342 728 q 412 760 383 746 q 472 794 440 775 q 526 833 503 813 q 564 876 549 854 q 578 919 579 897 q 558 963 578 942 q 406 1035 494 1047 q 250 961 331 1024 q 197 915 226 942 q 153 876 168 889 q 118 856 139 864 q 76 851 97 847 q 40 887 49 854 q 53 973 32 919 q 126 1078 75 1026 q 379 1204 233 1183 q 568 1176 482 1218 q 651 1122 613 1156 q 713 1054 692 1083 q 755 961 743 1013 q 753 856 767 910 z "},"4":{"ha":1018,"x_min":57,"x_max":946,"o":"m 756 235 q 899 191 851 224 q 943 88 946 158 q 893 -3 940 21 q 756 -28 846 -28 q 731 -211 751 -150 q 660 -271 711 -272 q 592 -206 611 -271 q 569 -14 572 -142 q 517 -10 538 -11 q 432 -3 482 -7 q 351 1 382 0 q 281 8 321 3 q 218 18 242 13 q 169 35 194 24 q 130 63 143 47 q 108 103 117 79 q 101 158 100 128 q 76 185 86 169 q 62 224 65 200 q 58 269 58 247 q 64 328 57 292 q 76 392 71 364 q 95 467 82 419 q 117 547 108 515 q 144 637 126 579 q 172 729 161 694 q 261 1031 251 1003 q 368 1178 313 1174 q 411 1167 389 1179 q 444 1135 432 1154 q 456 1084 456 1115 q 453 1023 457 1053 q 436 942 450 993 q 410 853 422 892 q 378 745 399 814 q 343 628 357 676 q 314 528 332 592 q 285 429 296 465 q 260 348 275 393 q 235 272 246 303 q 309 272 268 274 q 427 262 350 269 q 528 253 504 254 q 571 249 547 251 q 571 267 571 261 q 572 363 572 315 q 571 453 571 410 q 571 537 571 497 q 574 612 571 576 q 580 676 576 647 q 591 729 583 706 q 609 769 599 753 q 635 792 619 785 q 671 800 650 800 q 724 766 704 799 q 751 676 744 733 q 760 542 758 619 q 758 375 761 465 q 757 263 757 301 q 756 235 757 249 z "},"5":{"ha":889,"x_min":47,"x_max":850,"o":"m 806 628 q 836 408 850 522 q 758 200 821 292 q 589 58 696 108 q 400 8 500 14 q 222 36 300 3 q 103 121 147 67 q 53 225 60 175 q 60 290 47 267 q 99 319 74 314 q 151 301 125 322 q 213 251 176 281 q 294 211 250 222 q 496 236 389 186 q 586 308 554 264 q 632 431 624 361 q 615 557 642 494 q 547 647 589 619 q 451 688 507 675 q 346 697 396 700 q 302 693 325 697 q 269 686 279 689 q 231 674 260 683 q 203 661 203 664 q 107 661 138 642 q 90 694 90 672 q 69 714 78 703 q 58 742 61 725 q 55 772 56 758 q 58 811 54 786 q 64 851 61 836 q 73 899 67 867 q 83 944 79 931 q 92 1000 86 964 q 102 1054 99 1036 q 113 1097 106 1072 q 128 1136 119 1122 q 149 1161 136 1150 q 181 1178 163 1172 q 199 1203 186 1192 q 228 1219 211 1214 q 265 1229 244 1225 q 310 1235 286 1233 q 363 1238 335 1236 q 419 1238 390 1239 q 481 1236 449 1236 q 536 1238 503 1236 q 590 1239 569 1239 q 637 1239 610 1239 q 681 1238 664 1239 q 717 1232 697 1236 q 749 1221 738 1228 q 771 1203 760 1214 q 786 1176 782 1192 q 790 1142 790 1161 q 786 1110 790 1125 q 771 1085 782 1094 q 749 1067 760 1075 q 717 1054 739 1058 q 681 1047 696 1050 q 638 1044 667 1044 q 590 1043 608 1044 q 538 1042 572 1042 q 482 1042 501 1042 q 394 1040 454 1042 q 308 1039 335 1039 q 283 911 307 1031 q 278 869 281 892 q 319 881 299 878 q 672 803 514 911 q 752 725 717 772 q 806 628 788 678 z "},"6":{"ha":1094,"x_min":22,"x_max":1054,"o":"m 1033 496 q 1053 386 1053 444 q 1033 271 1054 328 q 903 106 999 178 q 738 22 835 56 q 553 -14 638 -12 q 358 19 453 -17 q 193 122 264 54 q 85 281 124 190 q 39 464 46 371 q 242 1013 22 750 q 366 1132 303 1082 q 480 1207 429 1182 q 574 1241 531 1232 q 645 1244 618 1250 q 683 1219 672 1238 q 701 1170 700 1192 q 688 1131 701 1149 q 653 1096 675 1113 q 599 1058 631 1079 q 534 1014 567 1036 q 463 955 501 992 q 392 878 424 918 q 293 713 329 794 q 522 783 400 774 q 790 740 660 796 q 1033 496 971 657 m 783 283 q 841 351 828 318 q 840 418 854 385 q 791 488 828 454 q 710 542 754 522 q 532 579 625 581 q 474 576 503 579 q 424 568 444 572 q 374 554 404 564 q 333 540 344 544 q 290 524 321 536 q 254 508 258 511 q 246 506 251 508 q 246 482 246 493 q 333 281 256 360 q 547 201 418 199 q 672 226 607 203 q 783 283 736 249 z "},"7":{"ha":782,"x_min":54,"x_max":740,"o":"m 704 1071 q 735 1018 731 1056 q 721 906 740 981 q 681 776 701 832 q 617 601 661 719 q 579 500 592 535 q 489 219 563 456 q 396 28 442 65 q 313 13 361 0 q 277 38 289 19 q 267 90 265 57 q 278 159 269 124 q 306 248 286 194 q 344 347 326 301 q 390 463 363 393 q 438 583 418 532 q 490 731 456 632 q 547 888 525 829 q 590 988 569 946 q 533 988 564 986 q 448 994 503 989 q 375 1000 393 999 q 301 1003 343 1001 q 232 1006 258 1004 q 174 1010 206 1007 q 124 1019 143 1013 q 88 1037 106 1025 q 63 1067 71 1049 q 54 1113 54 1086 q 60 1149 54 1133 q 78 1175 65 1165 q 104 1192 92 1185 q 142 1203 117 1200 q 184 1207 167 1206 q 235 1207 201 1208 q 290 1204 269 1206 q 350 1200 310 1203 q 383 1197 372 1197 q 442 1194 406 1196 q 498 1190 478 1192 q 547 1186 518 1189 q 593 1179 576 1183 q 631 1169 610 1175 q 664 1156 653 1164 q 686 1135 675 1147 q 701 1108 697 1124 q 703 1072 704 1092 l 703 1071 l 704 1071 z "},"8":{"ha":781,"x_min":8,"x_max":824,"o":"m 817 392 q 801 269 824 331 q 736 164 778 208 q 550 43 664 86 q 336 11 442 4 q 122 92 208 19 q 14 300 19 183 q 78 507 8 399 q 203 651 128 581 q 183 671 192 661 q 87 815 121 732 q 67 979 53 897 q 126 1118 78 1058 q 239 1204 175 1178 q 603 1174 397 1276 q 689 1069 667 1139 q 683 924 711 1003 q 617 801 658 854 q 525 706 581 756 q 544 701 536 703 q 725 594 658 671 q 817 392 806 499 m 231 957 q 308 794 222 876 q 336 768 322 779 q 489 906 458 871 q 536 976 518 938 q 533 1061 561 1035 q 486 1089 514 1078 q 306 1072 394 1126 q 231 957 236 1028 m 492 206 q 607 280 564 231 q 642 375 650 329 q 594 478 639 425 q 494 531 561 513 q 435 546 479 536 q 364 564 392 556 q 225 410 269 475 q 188 310 186 351 q 236 225 189 268 q 349 185 275 190 q 492 206 422 179 z "},"9":{"ha":928,"x_min":43,"x_max":854,"o":"m 808 1088 q 839 1064 828 1082 q 852 1015 850 1046 q 851 951 854 985 q 840 867 849 918 q 821 769 831 815 q 798 656 811 724 q 775 532 785 588 q 760 443 769 501 q 725 258 738 318 q 691 124 713 199 q 644 24 669 50 q 583 8 618 -1 q 558 23 568 13 q 542 53 547 33 q 534 95 536 74 q 535 151 532 117 q 541 215 538 186 q 553 290 544 243 q 567 372 561 338 q 585 465 574 407 q 603 561 596 522 q 496 486 553 518 q 268 456 379 424 q 157 514 208 472 q 71 619 100 561 q 47 717 50 665 q 53 809 43 768 q 82 889 63 850 q 214 1056 125 976 q 525 1194 361 1181 q 662 1175 599 1200 q 757 1111 725 1150 q 772 1089 765 1100 q 808 1088 789 1094 m 667 893 q 703 1006 683 963 q 696 1007 700 1006 q 542 1018 611 1031 q 326 911 425 997 q 238 804 265 858 q 228 701 207 740 q 263 660 236 682 q 314 633 288 640 q 418 651 358 621 q 640 861 518 707 q 667 893 660 885 z "}," ":{"ha":778,"x_min":0,"x_max":0,"o":""},"!":{"ha":443,"x_min":88,"x_max":342,"o":"m 206 86 q 166 126 183 90 q 140 209 149 161 q 124 325 131 257 q 117 446 118 393 q 113 560 115 499 q 110 642 111 622 q 104 728 108 669 q 97 826 100 788 q 93 921 94 864 q 94 1015 92 978 q 106 1095 97 1053 q 128 1163 114 1138 q 166 1203 142 1188 q 222 1218 190 1219 q 274 1199 251 1217 q 308 1153 296 1181 q 327 1082 321 1126 q 335 999 333 1038 q 333 904 336 961 q 328 810 331 847 q 319 717 325 774 q 311 636 314 660 q 307 555 310 615 q 301 440 304 494 q 292 319 299 386 q 275 204 285 253 q 247 122 265 156 q 206 86 229 88 m 125 -241 q 106 -223 125 -241 q 88 -151 88 -204 q 125 -62 88 -99 q 215 -25 163 -25 q 303 -62 267 -25 q 340 -151 340 -99 q 303 -241 340 -204 q 215 -278 267 -278 q 125 -241 163 -278 z "},"\"":{"ha":472,"x_min":-31,"x_max":439,"o":"m 224 999 q 254 1072 219 1038 q 331 1103 283 1101 q 407 1072 375 1104 q 439 999 439 1040 q 378 881 439 929 q 331 850 317 831 q 308 933 382 935 q 224 999 233 932 m -25 999 q 6 1072 -29 1038 q 82 1103 35 1101 q 158 1072 126 1104 q 190 999 190 1040 q 129 881 190 929 q 83 850 68 831 q 60 933 133 935 q -25 999 -15 932 z "},"#":{"ha":1125,"x_min":6,"x_max":1092,"o":"m 853 624 q 828 546 838 575 q 827 542 828 544 q 825 539 826 540 q 959 517 914 536 q 1006 456 1004 499 q 990 413 1006 431 q 940 386 974 396 q 867 371 907 376 q 769 364 826 365 q 661 90 708 175 q 558 25 614 4 q 526 60 535 33 q 524 135 517 88 q 544 233 531 182 q 582 360 557 283 q 542 358 557 360 q 407 354 499 358 q 363 222 383 276 q 317 125 342 168 q 267 65 293 82 q 214 58 242 49 q 179 112 185 69 q 185 208 174 154 q 222 353 196 263 q 114 376 150 357 q 76 438 78 396 q 126 503 75 483 q 275 529 176 522 q 297 606 288 571 q 80 622 153 604 q 7 696 7 640 q 19 730 8 715 q 53 753 29 744 q 103 769 76 763 q 172 778 129 775 q 252 783 215 782 q 347 786 289 785 q 353 806 349 792 q 395 960 381 911 q 434 1069 410 1010 q 484 1149 458 1129 q 542 1160 510 1168 q 575 1133 564 1154 q 588 1080 586 1111 q 582 1001 589 1049 q 563 905 575 954 q 533 789 551 856 q 547 790 543 790 q 634 793 575 790 q 722 796 693 796 q 753 896 740 858 q 782 979 765 933 q 813 1050 799 1025 q 844 1097 828 1075 q 880 1126 861 1119 q 919 1125 899 1132 q 959 1069 953 1115 q 952 959 965 1022 q 908 797 939 896 q 1045 774 999 793 q 1090 713 1092 754 q 1031 650 1090 669 q 853 624 972 631 m 661 600 q 667 618 664 607 q 551 615 597 617 q 482 613 524 614 q 474 582 475 586 q 466 557 471 574 q 460 533 461 540 q 539 535 508 533 q 640 536 575 535 q 661 600 653 574 z "},"$":{"ha":926,"x_min":15,"x_max":888,"o":"m 817 568 q 886 401 886 492 q 821 239 886 313 q 713 154 778 189 q 496 90 613 100 q 467 89 482 89 q 418 13 450 13 q 376 96 389 14 q 263 135 314 107 q 186 201 213 164 q 154 263 163 233 q 151 308 146 292 q 169 329 157 325 q 210 321 186 335 q 277 285 235 307 q 368 257 319 264 q 378 594 368 350 q 318 609 365 597 q 248 628 271 621 q 186 651 225 635 q 113 690 147 668 q 43 768 67 724 q 22 875 17 818 q 75 1026 28 944 q 168 1138 118 1100 q 283 1204 218 1178 q 401 1238 340 1226 q 465 1401 418 1404 q 514 1244 507 1400 q 693 1199 613 1243 q 803 1093 774 1156 q 822 1024 821 1056 q 812 978 822 993 q 788 963 801 964 q 758 974 774 963 q 724 1002 743 985 q 681 1035 706 1019 q 613 1062 656 1051 q 515 1069 569 1072 q 504 749 514 1025 q 571 725 540 738 q 699 663 643 696 q 817 568 774 618 m 383 779 q 388 909 385 815 q 392 1049 390 1003 q 233 931 276 1013 q 206 863 207 888 q 206 857 206 861 q 215 843 206 851 q 221 839 218 840 q 383 779 257 811 m 625 311 q 682 358 658 329 q 703 401 706 386 q 678 449 707 417 q 604 507 650 482 q 503 557 561 533 q 500 558 501 557 q 497 558 499 558 q 494 447 496 482 q 491 356 493 411 q 486 263 489 301 q 625 311 564 276 z "},"%":{"ha":617,"x_min":-26,"x_max":596,"o":"m 336 124 q 322 138 336 124 q 308 192 308 151 q 336 260 308 232 q 404 288 364 288 q 472 260 444 288 q 500 192 500 232 q 472 124 500 151 q 404 96 444 96 q 336 124 364 96 m 65 811 q 51 825 65 811 q 38 879 38 839 q 65 947 38 919 q 133 975 93 975 q 201 947 174 975 q 229 879 229 919 q 201 811 229 839 q 133 783 174 783 q 65 811 93 783 m 549 1097 q 428 1063 478 1129 q 272 768 378 996 q 222 661 240 699 q 49 276 71 335 q 24 33 -26 88 q 49 15 33 22 q 163 48 115 -17 q 310 331 210 113 q 365 450 346 407 q 418 561 388 497 q 468 665 449 625 q 512 757 488 706 q 549 843 536 808 q 576 917 563 878 q 592 981 589 956 q 594 1031 596 1006 q 581 1072 592 1056 q 549 1097 569 1088 z "},"&":{"ha":893,"x_min":15,"x_max":803,"o":"m 692 274 q 778 149 754 193 q 785 86 801 104 q 636 147 756 56 q 533 53 590 89 q 377 3 467 7 q 203 43 288 -1 q 68 179 119 90 q 22 371 17 268 q 96 565 29 478 q 169 643 133 615 q 186 656 176 649 q 113 960 97 813 q 154 1074 121 1026 q 261 1154 194 1131 q 489 1140 367 1189 q 663 994 604 1092 q 701 872 697 940 q 678 742 706 804 q 592 639 649 678 q 493 588 549 608 q 453 572 475 581 q 499 513 474 544 q 575 418 531 474 q 579 444 576 419 q 601 547 589 513 q 632 582 613 581 q 696 444 674 583 q 692 274 708 351 m 289 936 q 351 725 279 844 q 431 751 408 743 q 518 814 504 779 q 511 904 539 861 q 422 976 483 953 q 365 991 394 989 q 321 986 336 993 q 299 971 306 981 q 289 936 293 961 m 513 246 q 517 250 514 247 q 368 406 444 319 q 283 508 321 460 q 238 461 264 494 q 200 360 203 414 q 222 265 196 311 q 289 196 247 219 q 449 194 368 150 q 513 246 479 211 z "},"'":{"ha":524,"x_min":74,"x_max":424,"o":"m 178 324 q 222 301 204 319 q 246 253 239 282 q 278 307 256 285 q 325 329 300 329 q 327 329 326 329 q 329 329 328 329 l 329 329 q 332 329 331 329 q 336 328 335 329 q 339 328 338 328 q 373 317 358 325 q 397 299 388 310 q 412 276 406 289 q 421 250 418 263 q 424 225 424 238 q 415 180 424 201 q 392 140 406 158 q 362 105 379 122 q 327 72 344 88 q 295 40 310 56 q 269 5 281 24 q 254 -33 258 -14 l 254 -33 q 238 1 250 -15 q 211 31 226 17 q 178 59 196 44 q 143 90 160 74 q 112 124 126 106 q 88 167 97 143 q 76 221 78 192 q 88 273 75 249 q 122 311 101 297 q 164 324 143 325 q 167 324 165 324 q 169 324 168 324 q 171 324 169 324 q 172 324 172 324 q 174 324 174 324 q 176 324 175 324 q 178 324 176 324 z "},"(":{"ha":611,"x_min":-3,"x_max":567,"o":"m 560 67 q 515 21 553 33 q 410 26 476 8 q 274 94 344 44 q 76 344 154 175 q 0 707 -3 514 q 74 1071 -1 901 q 268 1325 150 1240 q 375 1385 322 1365 q 466 1406 428 1406 q 529 1390 504 1406 q 560 1349 554 1375 q 554 1299 565 1324 q 528 1257 543 1274 q 475 1206 513 1240 q 417 1150 438 1172 q 290 963 343 1079 q 237 707 238 846 q 290 452 236 568 q 417 267 343 336 q 476 211 438 246 q 529 160 514 176 q 556 118 544 144 q 560 67 567 92 z "},")":{"ha":599,"x_min":-4,"x_max":567,"o":"m 3 67 q 8 115 -3 90 q 35 156 19 140 q 89 206 51 172 q 149 264 126 240 q 275 451 222 335 q 326 708 328 568 q 272 963 326 847 q 143 1149 217 1079 q 112 1178 129 1163 q 83 1205 94 1194 q 57 1229 71 1215 q 35 1252 43 1243 q 17 1274 26 1261 q 5 1298 7 1288 q 0 1324 3 1308 q 3 1351 -3 1339 q 48 1397 10 1383 q 153 1392 86 1410 q 292 1322 219 1374 q 488 1071 410 1240 q 564 708 565 901 q 489 345 567 515 q 293 92 411 175 q 219 47 256 65 q 152 22 182 29 q 96 13 122 14 q 50 19 69 13 q 19 38 31 25 q 3 67 7 50 z "},"*":{"ha":1389,"x_min":107,"x_max":1257,"o":"m 618 750 q 619 838 618 804 q 622 917 619 872 q 627 989 624 961 q 636 1049 631 1017 q 649 1099 642 1081 q 667 1135 657 1118 q 692 1159 678 1151 q 725 1167 707 1167 q 785 1127 763 1167 q 815 1017 807 1088 q 824 853 822 947 q 819 647 825 758 q 922 721 838 660 q 970 752 951 742 q 1010 770 989 763 q 1051 774 1032 778 q 1089 757 1069 771 q 1114 685 1125 733 q 1050 578 1103 636 q 1007 535 1032 557 q 1086 529 1057 532 q 1149 519 1115 526 q 1201 503 1183 513 q 1233 478 1219 494 q 1249 440 1246 463 q 1175 356 1257 382 q 950 335 1093 329 q 960 324 953 331 q 1013 267 996 286 q 1054 219 1029 249 q 1088 173 1079 190 q 1106 134 1097 156 q 1110 96 1114 113 q 1094 63 1107 79 q 1029 40 1072 32 q 931 85 986 47 q 811 186 876 122 q 803 74 808 119 q 785 -10 797 28 q 753 -65 774 -47 q 703 -83 732 -83 q 650 -57 671 -83 q 619 23 629 -31 q 608 138 610 76 q 607 290 606 200 q 469 226 525 250 q 360 190 414 203 q 274 188 307 176 q 226 235 240 199 q 249 325 206 285 q 394 417 292 365 q 178 494 249 450 q 128 599 107 538 q 148 632 135 619 q 188 648 161 644 q 236 652 214 651 q 302 645 258 653 q 374 632 346 638 q 463 613 403 626 q 381 732 413 682 q 331 828 350 782 q 316 908 311 875 q 350 961 321 942 q 386 973 367 972 q 426 962 406 974 q 468 933 447 950 q 515 884 489 915 q 564 824 542 853 q 618 750 586 794 z "},"+":{"ha":1164,"x_min":-1,"x_max":1126,"o":"m 724 554 q 846 535 790 546 q 952 508 901 524 q 1037 473 1003 493 q 1095 426 1071 453 q 1122 369 1119 400 q 1113 299 1125 338 q 1092 260 1103 276 q 1064 233 1081 243 q 1033 215 1047 222 q 992 206 1018 208 q 948 204 965 204 q 897 208 931 204 q 842 215 863 211 q 781 224 822 218 q 726 233 744 231 q 733 143 729 200 q 738 58 736 86 q 740 -17 739 29 q 740 -86 742 -62 q 733 -143 738 -110 q 720 -194 729 -176 q 698 -231 711 -211 q 665 -260 685 -250 q 619 -275 644 -271 q 522 -251 563 -286 q 459 -139 482 -215 q 424 34 436 -62 q 408 258 411 131 q 360 258 392 258 q 292 259 314 258 q 231 261 269 260 q 174 265 193 263 q 125 274 154 268 q 81 288 96 281 q 48 308 67 296 q 21 337 29 321 q 6 374 13 353 q 0 422 0 396 q 30 512 0 478 q 114 560 60 546 q 242 578 168 574 q 407 576 317 582 q 411 730 407 663 q 424 863 415 797 q 449 976 433 929 q 487 1056 464 1022 q 543 1103 510 1090 q 619 1108 576 1117 q 665 1091 644 1103 q 697 1060 685 1079 q 719 1019 710 1040 q 731 964 728 997 q 736 901 735 931 q 736 826 738 871 q 733 744 735 781 q 728 652 732 708 q 724 554 725 596 z "},",":{"ha":244,"x_min":11,"x_max":232,"o":"m 17 114 q 47 188 13 153 q 124 218 76 217 q 200 188 168 219 q 232 114 232 156 q 171 -4 232 44 q 125 -33 110 -54 q 101 49 175 50 q 17 114 26 47 z "},"-":{"ha":758,"x_min":15,"x_max":739,"o":"m 19 458 m 19 475 q 64 532 17 500 q 196 589 111 564 q 375 619 281 614 q 558 622 478 625 q 689 593 639 619 q 733 519 739 567 q 726 485 733 500 q 708 458 719 469 q 683 439 697 447 q 647 425 669 431 q 607 417 625 419 q 558 411 589 414 q 506 407 528 408 q 446 404 483 406 q 383 401 408 403 q 319 396 358 400 q 258 390 281 392 q 204 388 236 389 q 153 388 172 386 q 111 392 133 389 q 75 400 89 394 q 49 415 61 406 q 29 440 36 425 q 19 475 22 456 z "},".":{"ha":450,"x_min":90,"x_max":308,"o":"m 122 69 q 106 85 122 69 q 90 143 90 100 q 122 217 90 186 q 199 247 154 247 q 275 217 243 247 q 307 143 307 186 q 275 69 307 100 q 199 39 243 39 q 122 69 154 39 z "},"/":{"ha":617,"x_min":-26,"x_max":596,"o":"m 549 1097 q 428 1063 478 1129 q 272 768 378 996 q 222 661 240 699 q 49 276 71 335 q 24 33 -26 88 q 49 15 33 22 q 163 48 115 -17 q 310 331 210 113 q 365 450 346 407 q 418 561 388 497 q 468 665 449 625 q 512 757 488 706 q 549 843 536 808 q 576 917 563 878 q 592 981 589 956 q 594 1031 596 1006 q 581 1072 592 1056 q 549 1097 569 1088 z "},":":{"ha":447,"x_min":124,"x_max":343,"o":"m 156 374 q 140 389 156 374 q 124 447 124 404 q 156 521 124 490 q 232 551 188 551 q 308 521 276 551 q 340 447 340 490 q 308 374 340 404 q 232 343 276 343 q 156 374 188 343 m 158 69 q 142 85 158 69 q 126 143 126 100 q 158 217 126 186 q 235 247 190 247 q 311 217 279 247 q 343 143 343 186 q 311 69 343 100 q 235 39 279 39 q 158 69 190 39 z "},";":{"ha":422,"x_min":101,"x_max":342,"o":"m 126 169 q 157 243 122 208 q 233 274 186 272 q 310 243 278 275 q 342 169 342 211 q 281 51 342 100 q 233 22 219 1 q 211 104 285 106 q 126 169 136 103 m 133 369 q 117 385 133 369 q 101 443 101 400 q 133 517 101 486 q 210 547 165 547 q 286 517 254 547 q 318 443 318 486 q 286 369 318 400 q 210 339 254 339 q 133 369 165 339 z "},"<":{"ha":1036,"x_min":-6,"x_max":1007,"o":"m 561 406 q 256 544 317 521 q 365 622 271 556 q 517 726 458 689 q 704 838 583 769 q 763 871 744 860 q 813 901 782 882 q 860 931 844 919 q 896 958 875 942 q 924 988 917 975 q 940 1015 932 1000 q 947 1045 949 1031 q 939 1075 946 1060 q 912 1111 929 1099 q 869 1124 894 1124 q 815 1120 843 1125 q 749 1099 788 1115 q 674 1064 710 1082 q 589 1017 638 1046 q 500 964 540 989 q 404 903 460 939 q 230 785 301 838 q 98 680 158 733 q 16 583 38 626 q 13 506 -6 539 q 22 463 11 483 q 58 422 33 442 q 112 384 83 401 q 186 345 140 367 q 272 306 232 324 q 369 263 311 289 q 471 217 428 238 q 581 163 522 193 q 681 111 640 133 q 767 67 722 89 q 842 33 811 44 q 903 15 874 21 q 955 17 933 10 q 990 46 976 25 q 1006 86 1004 65 q 994 128 1007 107 q 961 172 982 150 q 908 218 940 194 q 839 264 875 242 q 756 311 803 286 q 663 358 708 336 q 561 406 617 381 z "},"=":{"ha":783,"x_min":40,"x_max":764,"o":"m 44 392 m 44 408 q 89 468 42 436 q 221 525 136 500 q 400 556 306 550 q 583 557 503 561 q 714 528 664 553 q 758 453 764 503 q 751 418 758 433 q 733 392 744 403 q 708 372 722 381 q 672 360 694 364 q 632 351 650 356 q 583 344 614 347 q 531 342 553 342 q 471 339 508 342 q 408 335 433 336 q 344 331 383 333 q 283 326 306 328 q 229 324 261 325 q 178 322 197 322 q 136 325 158 322 q 100 335 114 328 q 74 351 86 342 q 54 375 61 361 q 44 408 47 389 m 46 103 m 44 119 q 89 178 42 146 q 222 235 136 210 q 401 265 307 260 q 584 267 503 271 q 715 238 665 264 q 760 164 764 213 q 752 129 758 144 q 734 103 746 114 q 709 83 722 92 q 674 70 696 75 q 633 62 651 65 q 585 56 615 58 q 532 52 554 53 q 472 49 510 51 q 409 46 435 47 q 345 41 383 44 q 284 36 307 38 q 230 33 261 35 q 179 33 199 32 q 137 36 160 33 q 101 45 114 39 q 74 61 88 51 q 54 85 61 71 q 44 119 47 100 z "},">":{"ha":1025,"x_min":-3,"x_max":1011,"o":"m 443 378 q 750 515 688 492 q 640 594 733 526 q 488 699 547 661 q 300 810 422 740 q 242 843 261 832 q 192 873 224 854 q 145 903 160 892 q 110 931 131 914 q 81 960 89 947 q 65 988 72 972 q 58 1017 57 1003 q 65 1047 58 1032 q 93 1082 75 1069 q 136 1096 111 1094 q 190 1092 161 1097 q 257 1069 218 1086 q 331 1035 296 1053 q 415 990 367 1018 q 504 935 464 961 q 600 875 544 910 q 775 758 703 810 q 907 652 847 706 q 988 555 967 599 q 992 478 1010 511 q 983 434 994 456 q 947 393 972 413 q 893 356 922 374 q 819 316 864 338 q 734 278 774 294 q 636 235 694 261 q 533 189 578 208 q 424 135 483 165 q 324 83 365 104 q 238 38 283 61 q 162 4 193 15 q 101 -12 131 -7 q 50 -10 71 -18 q 14 17 29 -3 q -1 58 0 36 q 10 101 -1 79 q 43 144 22 122 q 97 190 64 167 q 167 235 131 213 q 250 283 203 258 q 342 329 297 307 q 443 378 388 351 z "},"?":{"ha":814,"x_min":1,"x_max":771,"o":"m 276 29 q 192 93 228 19 q 167 349 136 206 q 193 432 176 393 q 242 525 206 478 q 367 654 282 578 q 417 700 396 679 q 463 750 438 721 q 496 805 488 779 q 503 857 504 831 q 477 907 503 883 q 404 947 451 931 q 243 940 322 978 q 184 892 215 925 q 124 836 153 858 q 61 818 96 814 q 19 845 35 819 q 3 918 3 871 q 32 1042 1 974 q 126 1163 63 1111 q 289 1231 196 1218 q 479 1210 382 1244 q 656 1085 575 1175 q 695 1038 683 1054 q 729 984 707 1022 q 761 902 751 946 q 768 806 771 858 q 759 751 765 778 q 742 701 753 724 q 725 663 732 679 q 703 628 718 647 q 682 601 688 608 q 659 575 676 594 q 639 553 642 556 q 507 433 611 525 q 418 346 440 376 q 397 314 401 325 q 378 272 388 297 q 356 175 367 242 q 328 71 344 108 q 276 29 311 33 m 167 -240 q 149 -221 167 -240 q 131 -150 131 -203 q 167 -60 131 -97 q 257 -24 204 -24 q 347 -60 310 -24 q 383 -150 383 -97 q 347 -240 383 -203 q 257 -276 310 -276 q 167 -240 204 -276 z "},"@":{"ha":1322,"x_min":-22,"x_max":1279,"o":"m 1250 603 q 1262 553 1267 597 q 1231 439 1257 510 q 1201 375 1213 397 q 1163 306 1190 353 q 1108 227 1136 260 q 1033 153 1079 194 q 933 81 988 113 q 593 0 792 -4 q 392 37 493 0 q 214 143 292 74 q 16 512 53 288 q 81 944 -21 736 q 222 1133 133 1051 q 421 1256 310 1215 q 865 1274 639 1335 q 1060 1182 972 1244 q 1192 1032 1147 1119 q 1210 689 1278 864 q 1139 557 1179 611 q 1076 499 1108 519 q 964 475 1024 463 q 881 521 919 483 q 879 522 881 521 q 861 486 871 503 q 721 342 801 385 q 474 325 601 281 q 368 392 414 347 q 294 493 322 436 q 256 711 244 596 q 285 818 258 763 q 347 908 311 874 q 505 1019 414 981 q 682 1054 596 1058 q 819 1024 758 1053 q 913 957 881 994 q 940 882 949 913 q 946 751 960 843 q 949 686 947 726 q 963 626 951 644 q 967 619 963 622 q 977 612 971 615 q 986 606 983 608 q 990 612 986 608 q 1001 622 994 615 q 1013 639 1007 629 q 1058 736 1039 676 q 1074 848 1078 783 q 1042 963 1069 913 q 953 1059 1013 1017 q 817 1122 894 1101 q 651 1142 742 1144 q 482 1111 561 1140 q 336 1021 403 1082 q 231 879 269 960 q 181 536 150 715 q 329 256 211 357 q 501 168 400 192 q 693 157 603 144 q 856 207 783 169 q 922 249 889 225 q 977 293 954 272 q 1026 345 1000 314 q 1066 393 1053 376 q 1103 442 1079 410 q 1132 483 1126 475 q 1206 580 1179 551 q 1250 603 1233 608 m 769 669 q 858 869 832 829 q 845 874 857 869 q 829 881 833 879 q 813 886 825 882 q 794 892 800 890 q 775 897 789 893 q 754 901 761 901 q 731 904 747 901 q 708 906 715 907 q 682 904 700 904 q 574 876 629 901 q 475 804 518 851 q 422 694 429 764 q 446 557 414 625 q 501 488 465 513 q 571 463 536 464 q 639 478 606 463 q 769 669 706 513 z "},"A":{"ha":981,"x_min":4,"x_max":911,"o":"m 725 635 q 765 540 742 593 q 806 447 788 486 q 843 360 824 407 q 875 278 863 314 q 898 206 888 243 q 910 140 908 168 q 906 88 911 113 q 885 45 901 63 q 843 17 869 28 q 786 48 825 10 q 694 167 747 86 q 590 350 640 247 q 429 293 556 333 q 233 290 383 279 q 223 201 229 242 q 206 122 217 160 q 178 56 194 83 q 142 13 163 29 q 94 -1 122 -3 q 33 19 67 0 q 7 80 10 33 q 23 209 4 126 q 67 374 42 292 q 135 583 92 457 q 220 865 168 685 q 302 1132 272 1044 q 353 1222 332 1219 q 367 1231 354 1222 q 394 1248 379 1240 q 435 1251 408 1256 q 490 1225 461 1247 q 551 1113 515 1203 q 638 872 586 1022 q 725 635 689 721 m 378 482 q 425 491 396 485 q 476 500 454 497 q 517 503 497 503 q 451 647 496 553 q 386 799 406 740 q 339 661 371 747 q 286 514 307 575 q 281 494 283 506 q 274 474 278 483 q 378 482 329 474 z "},"B":{"ha":1018,"x_min":35,"x_max":968,"o":"m 157 58 q 78 235 111 60 q 39 668 46 410 q 53 1104 35 935 q 115 1281 72 1274 q 182 1206 147 1286 q 241 981 217 1126 q 267 674 265 836 q 240 240 274 422 q 157 58 206 58 m 139 74 q 147 101 140 86 q 175 135 153 115 q 229 160 197 154 q 317 162 274 167 q 427 162 361 157 q 540 188 493 167 q 693 289 636 231 q 741 358 725 321 q 750 425 757 396 q 715 485 746 454 q 632 539 683 515 q 382 600 533 583 q 240 608 318 607 q 206 608 222 608 l 189 608 l 179 608 l 172 832 q 239 839 208 835 q 471 897 382 856 q 561 965 535 931 q 576 1033 588 1000 q 519 1097 564 1067 q 447 1121 490 1117 q 366 1119 403 1125 q 286 1104 329 1113 q 222 1097 243 1096 q 203 1095 213 1097 q 181 1090 193 1093 q 161 1084 168 1086 q 142 1078 154 1082 q 118 1069 125 1071 q 102 1066 111 1067 q 91 1069 93 1065 q 92 1083 89 1074 q 103 1110 94 1093 q 105 1124 103 1111 q 113 1152 107 1138 q 132 1184 119 1167 q 174 1219 144 1201 q 243 1249 203 1236 q 311 1266 282 1260 q 389 1276 340 1272 q 492 1270 438 1281 q 600 1235 546 1260 q 710 1147 667 1203 q 764 986 768 1075 q 699 818 763 896 q 569 714 649 758 q 269 619 449 647 q 186 610 236 614 q 174 832 186 586 l 176 832 l 186 832 l 206 832 q 244 832 224 833 q 406 824 332 832 q 731 738 596 803 q 876 629 819 692 q 958 451 949 551 q 926 280 968 356 q 819 150 885 204 q 594 38 726 75 q 254 22 424 -8 q 168 47 199 33 q 139 74 138 61 z "},"C":{"ha":1008,"x_min":28,"x_max":932,"o":"m 899 290 q 847 154 896 213 q 726 57 799 96 q 632 21 679 32 q 425 38 535 -3 q 228 172 315 79 q 81 416 133 272 q 44 717 28 560 q 133 1001 67 875 q 301 1215 200 1128 q 521 1317 400 1300 q 722 1293 625 1329 q 869 1187 807 1260 q 922 1024 932 1114 q 891 959 917 981 q 831 940 865 938 q 763 956 797 942 q 704 990 729 969 q 663 1035 689 1001 q 619 1082 638 1069 q 542 1111 581 1110 q 470 1090 503 1113 q 408 1033 438 1067 q 356 956 379 1000 q 315 872 332 911 q 288 794 299 832 q 260 622 263 711 q 285 446 257 533 q 375 306 314 358 q 512 244 435 256 q 657 263 589 232 q 751 333 692 279 q 771 351 758 338 q 793 374 783 365 q 815 391 803 383 q 840 398 826 399 q 864 386 853 397 q 899 290 901 353 z "},"D":{"ha":976,"x_min":56,"x_max":904,"o":"m 726 1221 q 858 1010 813 1143 q 899 733 904 876 q 847 474 893 596 q 731 263 801 351 q 451 54 617 115 q 323 25 383 32 q 228 24 263 18 q 175 40 193 29 q 149 14 163 14 q 67 214 81 17 q 60 625 60 294 q 59 734 60 674 q 57 838 58 794 q 56 931 56 881 q 57 1017 56 982 q 61 1090 58 1053 q 71 1151 64 1126 q 88 1195 78 1175 q 114 1225 99 1215 q 149 1235 129 1235 q 185 1183 168 1236 q 194 1193 190 1189 q 390 1301 281 1271 q 465 1315 426 1313 q 548 1310 504 1317 q 639 1281 592 1304 q 726 1221 686 1258 m 719 753 q 700 891 724 826 q 635 994 676 956 q 438 1061 561 1065 q 256 1033 385 1058 q 288 661 288 893 q 246 246 288 379 q 323 280 257 251 q 438 336 389 308 q 621 489 553 400 q 719 753 714 607 z "},"E":{"ha":889,"x_min":31,"x_max":849,"o":"m 183 88 q 105 241 144 83 q 44 618 65 399 q 32 913 33 767 q 52 1169 31 1060 q 113 1285 74 1279 q 191 1272 158 1290 q 243 1213 224 1253 q 274 1124 263 1172 q 289 1007 285 1075 q 295 880 293 939 q 299 746 297 821 q 306 621 301 671 q 297 364 318 492 q 244 164 276 236 q 183 88 211 92 m 129 1065 q 239 1140 133 1108 q 472 1158 344 1171 q 494 1156 481 1157 q 550 1149 532 1151 q 600 1143 568 1147 q 648 1135 632 1139 q 688 1125 664 1132 q 723 1110 711 1118 q 750 1092 735 1103 q 772 1067 765 1081 q 781 1037 778 1054 q 783 999 785 1019 q 769 961 782 976 q 732 938 757 946 q 681 926 707 929 q 612 924 654 922 q 534 928 569 925 q 446 936 499 931 q 218 988 311 950 q 129 1065 125 1025 m 804 549 q 693 487 799 508 q 440 475 588 465 q 189 518 292 483 q 89 593 86 553 q 201 668 92 636 q 453 692 311 700 q 511 688 472 690 q 594 683 567 685 q 665 675 622 681 q 729 660 708 669 q 772 637 750 651 q 801 600 794 622 q 804 549 808 578 m 129 99 q 174 157 126 125 q 306 214 221 189 q 486 244 392 239 q 669 247 588 250 q 799 217 750 243 q 844 144 849 192 q 837 108 843 124 q 818 82 831 93 q 793 63 806 71 q 758 50 781 56 q 718 41 736 44 q 669 35 700 38 q 617 31 639 32 q 556 28 594 31 q 493 25 518 26 q 430 21 468 24 q 369 16 392 18 q 315 13 346 14 q 264 12 283 11 q 222 15 244 13 q 185 24 199 18 q 159 40 172 31 q 139 65 146 50 q 129 99 132 79 z "},"F":{"ha":960,"x_min":15,"x_max":875,"o":"m 201 4 q 110 160 157 1 q 40 549 63 319 q 27 709 32 635 q 19 868 22 783 q 19 1018 15 953 q 31 1138 22 1083 q 59 1220 40 1192 q 107 1244 78 1249 q 147 1233 128 1243 q 182 1205 167 1224 q 210 1167 197 1186 q 233 1115 222 1149 q 251 1057 243 1082 q 265 988 258 1032 q 276 916 272 944 q 285 836 281 888 q 293 756 290 785 q 300 672 296 728 q 308 576 306 608 q 317 464 314 511 q 324 360 321 417 q 325 263 326 303 q 320 179 324 222 q 307 108 317 136 q 284 55 297 79 q 249 18 271 31 q 201 4 228 6 m 846 1097 q 735 1033 843 1053 q 476 1029 626 1014 q 226 1086 328 1044 q 129 1172 125 1128 q 242 1235 133 1215 q 499 1239 350 1254 q 757 1189 664 1222 q 846 1097 850 1156 m 874 472 q 756 406 874 429 q 475 392 638 382 q 199 440 313 401 q 89 522 86 478 q 201 603 92 569 q 465 626 310 636 q 592 615 539 621 q 702 599 646 610 q 794 572 758 588 q 852 531 829 556 q 874 472 875 506 z "},"G":{"ha":978,"x_min":11,"x_max":947,"o":"m 942 521 q 890 430 947 474 q 747 369 833 386 q 651 365 704 360 q 551 385 597 371 q 471 431 504 399 q 435 508 438 464 q 444 574 433 547 q 477 615 454 601 q 526 636 500 629 q 589 641 551 643 q 656 635 626 639 q 726 624 686 632 q 884 583 832 604 q 942 521 936 563 m 914 515 q 926 501 919 514 q 935 463 932 489 q 935 399 939 438 q 890 260 928 335 q 786 126 853 186 q 607 26 706 54 q 364 49 478 -11 q 158 231 244 106 q 42 515 72 356 q 56 835 11 678 q 201 1090 101 993 q 403 1204 294 1179 q 610 1207 511 1229 q 853 1071 756 1175 q 901 1009 889 1031 q 904 971 913 988 q 863 917 885 929 q 815 915 842 904 q 758 945 788 926 q 682 983 729 964 q 586 1004 635 1001 q 331 897 433 1013 q 233 563 199 751 q 438 279 267 378 q 528 250 478 253 q 624 261 579 247 q 710 301 668 275 q 778 363 754 328 q 810 425 803 397 q 824 476 817 453 q 852 510 832 500 q 914 515 872 519 z "},"H":{"ha":981,"x_min":33,"x_max":899,"o":"m 140 -3 q 104 17 119 -3 q 79 74 89 36 q 64 164 69 111 q 56 281 58 217 q 53 417 54 344 q 54 569 53 489 q 54 664 54 600 q 55 807 54 758 q 58 936 56 856 q 69 1058 61 1017 q 89 1146 76 1100 q 123 1213 101 1192 q 174 1233 144 1233 q 223 1219 201 1231 q 259 1183 244 1208 q 285 1131 274 1158 q 301 1060 296 1103 q 310 978 307 1017 q 313 882 313 939 q 313 783 313 825 q 311 676 313 742 q 310 572 310 611 q 307 418 310 483 q 298 283 304 353 q 280 165 292 214 q 250 78 268 117 q 204 18 232 39 q 140 -3 176 -3 m 128 683 m 33 703 q 33 703 0 0 m 726 -3 q 690 17 706 -3 q 665 74 675 36 q 650 164 656 111 q 642 281 644 217 q 640 417 640 344 q 640 569 639 489 q 640 664 640 600 q 641 807 640 758 q 644 936 642 856 q 655 1058 647 1017 q 675 1146 663 1100 q 709 1213 688 1192 q 760 1233 731 1233 q 809 1219 788 1231 q 845 1183 831 1208 q 871 1131 860 1158 q 888 1060 882 1103 q 896 978 893 1017 q 899 882 899 939 q 899 783 899 825 q 897 676 899 742 q 896 572 896 611 q 893 418 896 483 q 884 283 890 353 q 866 165 878 214 q 836 78 854 117 q 790 18 818 39 q 726 -3 763 -3 m 714 683 m 706 639 q 622 557 706 592 q 418 522 538 522 q 214 557 299 522 q 129 639 129 592 q 401 722 129 722 q 620 703 535 722 q 706 639 706 683 z "},"I":{"ha":417,"x_min":-1,"x_max":424,"o":"m 421 106 q 224 -10 418 -18 q 4 106 3 -1 q 51 186 6 160 q 226 222 118 226 q 421 106 424 214 m 417 1114 q 219 999 414 990 q 0 1114 -1 1007 q 47 1196 1 1168 q 222 1231 114 1235 q 417 1114 419 1222 m 224 -10 q 133 29 169 -10 q 78 144 97 68 q 53 307 60 219 q 46 515 46 394 q 47 632 46 586 q 49 751 47 678 q 56 872 51 824 q 67 982 60 921 q 85 1083 74 1043 q 113 1158 97 1122 q 150 1213 128 1194 q 200 1231 172 1231 q 325 1099 288 1232 q 358 636 361 974 q 358 538 358 554 q 359 445 358 499 q 360 355 360 392 q 361 272 361 318 q 358 194 361 225 q 351 127 356 163 q 335 69 346 92 q 310 28 325 47 q 274 1 296 10 q 224 -10 251 -8 z "},"J":{"ha":1031,"x_min":40,"x_max":975,"o":"m 108 568 q 170 561 149 571 q 199 528 192 551 q 209 476 207 504 q 218 406 211 449 q 239 328 225 364 q 294 229 264 269 q 368 175 328 182 q 414 181 393 171 q 461 214 435 190 q 475 228 471 222 q 504 282 492 249 q 542 583 539 378 q 535 851 542 639 q 533 1028 528 968 q 560 1092 539 1088 q 583 1093 571 1092 q 614 1086 596 1094 q 649 1063 632 1078 q 683 1017 665 1049 q 714 942 701 986 q 731 849 725 907 q 742 705 738 790 q 749 592 746 619 q 753 537 750 579 q 758 475 757 494 q 761 416 760 456 q 760 349 763 376 q 750 284 757 321 q 731 214 743 247 q 669 108 707 151 q 615 60 647 82 q 581 39 603 51 q 553 26 581 39 q 422 -4 496 1 q 271 13 349 -10 q 101 158 158 50 q 57 301 68 224 q 47 380 50 350 q 42 444 44 410 q 44 497 40 478 q 54 533 47 515 q 75 559 61 551 q 108 568 89 567 m 972 1079 q 571 979 975 1004 q 164 1028 169 954 q 265 1172 158 1118 q 553 1236 372 1225 q 972 1079 965 1261 z "},"K":{"ha":906,"x_min":49,"x_max":876,"o":"m 563 446 q 660 368 619 403 q 746 292 701 333 q 816 218 790 251 q 859 152 842 185 q 872 92 876 119 q 843 44 868 65 q 797 17 821 25 q 747 17 774 10 q 695 35 719 24 q 635 72 671 46 q 574 119 600 97 q 501 178 547 140 q 422 243 456 217 q 272 375 339 308 q 274 274 271 329 q 278 183 276 218 q 279 112 281 149 q 270 54 278 75 q 244 19 263 33 q 193 3 225 6 q 153 9 171 1 q 124 35 136 17 q 102 74 111 53 q 88 128 93 94 q 78 194 82 163 q 72 274 75 226 q 68 359 69 321 q 65 454 67 397 q 61 553 64 511 q 61 560 61 556 q 51 797 53 715 q 52 994 49 879 q 78 1166 56 1110 q 140 1229 100 1222 q 201 1226 176 1235 q 242 1194 226 1218 q 265 1142 257 1171 q 278 1067 274 1113 q 283 982 282 1022 q 288 885 285 942 q 294 785 290 828 q 426 1006 369 938 q 519 1096 474 1061 q 601 1142 565 1131 q 666 1149 638 1153 q 713 1126 694 1144 q 736 1076 732 1108 q 726 999 740 1044 q 669 891 713 954 q 554 756 625 828 q 472 684 519 722 q 396 610 424 646 q 442 561 414 590 q 482 519 469 532 q 516 486 494 506 q 563 446 538 467 z "},"L":{"ha":888,"x_min":31,"x_max":921,"o":"m 907 188 q 911 179 907 188 q 918 147 915 169 q 918 110 921 125 q 901 79 915 96 q 856 51 886 63 q 772 29 826 40 q 638 11 717 18 q 284 15 433 -6 q 132 83 135 36 q 161 163 129 128 q 256 221 193 197 q 400 260 318 244 q 588 285 482 275 q 725 285 668 293 q 818 265 782 276 q 876 230 854 253 q 907 188 899 207 m 232 46 q 120 216 174 43 q 49 636 67 389 q 59 1053 31 881 q 144 1240 88 1226 q 224 1242 189 1251 q 281 1194 258 1232 q 319 1120 304 1156 q 344 1008 333 1085 q 358 883 354 932 q 369 735 363 835 q 374 671 372 693 q 365 366 385 514 q 308 133 344 218 q 232 46 271 49 z "},"M":{"ha":1407,"x_min":57,"x_max":1290,"o":"m 1190 28 q 1126 35 1156 15 q 1066 122 1096 56 q 1017 244 1036 189 q 960 418 997 300 q 911 571 928 518 q 834 876 861 722 q 809 1126 807 1029 q 839 1235 811 1224 q 898 1249 871 1247 q 948 1240 925 1251 q 989 1214 971 1229 q 1024 1167 1007 1199 q 1053 1107 1040 1136 q 1082 1031 1067 1078 q 1109 946 1097 985 q 1139 849 1121 907 q 1171 747 1157 790 q 1221 587 1200 658 q 1260 434 1242 515 q 1285 290 1279 353 q 1285 172 1290 228 q 1256 80 1281 117 q 1190 28 1232 43 m 624 810 q 682 1028 649 929 q 749 1183 715 1128 q 808 1229 783 1238 q 851 1070 849 1215 q 815 744 853 925 q 756 528 790 625 q 688 381 722 432 q 628 339 654 329 q 588 490 589 351 q 624 810 586 628 m 628 339 q 556 369 606 321 q 444 518 507 418 q 321 747 382 618 q 258 904 286 824 q 215 1053 231 985 q 194 1176 200 1121 q 194 1266 189 1232 q 215 1306 200 1300 q 274 1317 247 1317 q 321 1309 300 1318 q 358 1286 342 1300 q 390 1246 375 1272 q 417 1194 406 1219 q 442 1128 429 1168 q 467 1054 456 1089 q 494 971 478 1019 q 524 882 510 922 q 569 759 542 833 q 610 649 597 685 q 641 560 624 613 q 663 482 658 508 q 667 424 667 456 q 658 374 668 393 q 628 339 647 354 m 183 1303 q 274 1211 238 1322 q 321 679 332 1036 q 321 657 321 668 q 322 515 318 594 q 328 377 325 436 q 334 254 332 318 q 331 147 336 190 q 310 67 325 103 q 265 14 296 31 q 188 -1 235 -3 q 112 103 143 1 q 69 358 81 204 q 64 685 57 511 q 67 805 65 735 q 69 917 68 875 q 72 1015 69 960 q 79 1103 75 1069 q 92 1174 83 1136 q 112 1235 100 1213 q 142 1275 124 1257 q 183 1303 160 1293 m 61 215 z "},"N":{"ha":960,"x_min":31,"x_max":913,"o":"m 778 1224 q 858 1153 828 1217 q 897 992 888 1089 q 909 774 906 894 q 908 535 913 654 q 905 384 907 446 q 897 258 903 322 q 881 151 892 193 q 854 74 871 110 q 813 22 838 39 q 756 1 789 4 q 695 153 718 -1 q 674 547 672 308 q 672 686 675 607 q 665 826 668 765 q 660 956 661 888 q 663 1071 658 1024 q 680 1157 668 1118 q 716 1213 692 1196 q 778 1224 740 1231 m 136 1110 q 267 1106 161 1193 q 522 767 389 1004 q 576 663 551 715 q 626 563 596 625 q 671 472 657 500 q 708 397 685 444 q 739 325 731 349 q 759 264 747 301 q 773 203 771 226 q 776 150 775 181 q 772 93 778 119 q 754 38 765 67 q 686 65 744 13 q 540 239 628 118 q 371 504 451 360 q 188 892 251 718 q 136 1110 124 1067 m 156 1274 q 214 1256 190 1276 q 251 1184 238 1235 q 271 1087 264 1133 q 278 954 278 1040 q 276 817 278 868 q 271 665 275 765 q 267 571 268 601 q 265 504 267 547 q 261 399 263 433 q 256 308 260 365 q 248 221 253 250 q 235 149 243 192 q 217 86 228 107 q 192 42 207 65 q 158 10 178 19 q 111 -1 138 0 q 73 15 89 -3 q 49 78 57 33 q 35 165 40 122 q 31 288 31 208 q 33 422 32 368 q 38 578 35 476 q 40 770 42 674 q 40 956 38 867 q 51 1115 43 1046 q 85 1228 60 1185 q 156 1274 111 1271 z "},"O":{"ha":1213,"x_min":54,"x_max":1160,"o":"m 1143 660 q 1106 345 1160 493 q 954 113 1053 197 q 863 53 910 74 q 642 4 760 6 q 424 44 525 3 q 244 164 326 85 q 115 346 163 243 q 66 519 78 424 q 71 722 54 614 q 133 926 88 829 q 367 1186 219 1103 q 546 1239 447 1232 q 732 1211 644 1246 q 889 1124 808 1185 q 1019 993 963 1072 q 1143 660 1124 849 m 806 279 q 870 410 850 329 q 876 575 890 490 q 806 739 864 667 q 660 844 749 811 q 506 839 581 876 q 386 718 432 801 q 335 558 344 644 q 346 411 325 472 q 418 278 368 338 q 532 196 468 219 q 679 195 603 171 q 806 279 756 219 z "},"P":{"ha":954,"x_min":38,"x_max":896,"o":"m 882 865 q 886 697 896 771 q 842 571 876 624 q 757 484 808 518 q 638 434 706 450 q 492 419 569 418 q 328 436 414 419 q 353 72 392 193 q 190 13 318 -43 q 108 304 157 28 q 49 990 38 700 q 161 1267 58 1279 q 178 1263 169 1265 q 223 1231 214 1251 q 236 1153 232 1211 q 236 1136 236 1142 q 368 1219 292 1190 q 460 1240 410 1236 q 569 1229 511 1243 q 678 1182 628 1215 q 810 1049 756 1131 q 882 865 865 967 m 318 938 q 346 647 335 810 q 564 726 504 633 q 574 871 608 794 q 446 960 538 950 q 318 938 386 967 z "},"Q":{"ha":1186,"x_min":36,"x_max":1118,"o":"m 1104 85 q 1081 39 1106 60 q 1014 14 1036 4 q 829 68 892 68 q 828 67 828 68 l 826 67 q 613 17 726 19 q 399 58 499 15 q 224 181 304 100 q 97 368 143 263 q 50 578 63 449 q 54 850 36 715 q 103 1033 63 913 q 322 1322 164 1219 q 858 1272 579 1488 q 1104 764 1071 1107 q 1083 462 1118 621 q 990 215 1049 303 q 1043 172 1021 192 q 1088 125 1074 144 q 1104 85 1103 106 m 858 328 q 906 508 892 393 q 906 717 919 624 q 817 937 889 839 q 632 1079 744 1035 q 439 1071 532 1121 q 288 910 346 1021 q 222 619 217 772 q 242 490 225 550 q 458 186 313 244 q 587 172 521 163 q 713 218 653 181 q 711 217 711 222 q 713 210 713 215 q 713 207 713 207 q 688 313 693 257 q 710 426 682 399 q 754 430 726 442 q 810 386 782 418 q 858 328 817 379 z "},"R":{"ha":965,"x_min":97,"x_max":893,"o":"m 560 472 q 711 356 643 421 q 818 228 779 292 q 869 103 857 164 q 853 1 882 43 q 831 -20 843 -14 q 802 -22 819 -26 q 768 -8 785 -17 q 724 22 751 1 q 672 62 696 43 q 609 113 649 81 q 538 169 569 144 q 475 215 517 186 q 397 274 433 244 q 326 338 360 303 q 325 221 321 274 q 331 127 329 168 q 328 58 333 86 q 299 15 324 29 q 224 0 274 0 q 132 303 165 0 q 113 917 99 607 q 185 1244 128 1228 q 240 1229 225 1257 q 250 1143 256 1201 q 256 1149 251 1144 q 261 1156 260 1153 q 515 1294 372 1303 q 800 1121 694 1283 q 881 803 893 978 q 751 533 869 622 q 560 472 672 475 m 474 713 q 600 704 551 693 q 669 765 653 717 q 665 879 685 814 q 613 975 649 936 q 536 1022 576 1014 q 516 1026 526 1025 q 495 1027 506 1028 q 477 1026 485 1026 q 458 1022 469 1025 q 441 1017 446 1018 q 424 1010 436 1015 q 409 1003 411 1004 q 394 996 407 1003 q 381 989 381 989 q 401 736 400 888 q 401 735 401 736 q 410 732 406 733 q 474 713 435 722 z "},"S":{"ha":893,"x_min":33,"x_max":833,"o":"m 814 489 q 831 390 826 440 q 825 290 833 339 q 794 193 815 238 q 740 113 774 149 q 638 43 696 64 q 528 18 606 31 q 454 10 481 10 q 386 15 422 8 q 325 32 354 21 q 224 89 267 53 q 156 169 181 124 q 128 254 131 213 q 146 332 126 296 q 197 381 165 367 q 267 379 232 396 q 301 349 286 369 q 315 328 307 342 q 328 308 322 315 q 358 279 342 290 q 393 265 375 268 q 431 268 413 263 q 479 306 461 278 q 501 378 499 336 q 474 490 503 433 q 401 582 447 543 q 297 646 363 615 q 188 700 199 693 q 96 775 129 732 q 44 882 57 822 q 43 1001 33 936 q 79 1111 51 1064 q 154 1196 106 1160 q 303 1263 214 1239 q 471 1275 396 1286 q 618 1210 563 1263 q 653 1157 643 1185 q 653 1100 663 1128 q 617 1050 644 1071 q 561 1029 590 1029 q 508 1043 538 1029 q 484 1056 501 1047 q 456 1071 467 1065 q 356 1092 408 1092 q 303 1086 326 1093 q 257 1063 276 1079 q 224 1014 232 1043 q 224 954 214 985 q 256 900 232 925 q 306 863 275 879 q 371 835 335 847 q 452 813 407 824 q 521 794 497 801 q 639 740 590 772 q 681 708 661 725 q 719 672 701 692 q 751 628 736 651 q 778 583 765 607 q 799 538 789 560 q 814 489 807 514 z "},"T":{"ha":1182,"x_min":33,"x_max":1136,"o":"m 594 1253 q 783 1249 697 1253 q 883 1238 814 1247 q 983 1217 936 1229 q 1064 1186 1028 1204 q 1117 1142 1100 1168 q 1132 1079 1135 1111 q 983 1013 1128 1033 q 622 997 839 992 q 606 824 614 911 q 596 558 596 686 q 586 154 594 186 q 447 0 539 -24 q 406 21 440 4 q 361 64 375 35 q 342 126 344 92 q 339 214 339 142 q 347 315 339 215 l 386 836 q 411 1004 411 1003 q 379 1007 400 1006 q 239 1017 283 1013 q 138 1032 192 1022 q 60 1058 81 1042 q 36 1103 38 1075 q 42 1164 33 1138 q 68 1208 50 1190 q 108 1239 86 1226 q 164 1256 128 1250 q 231 1263 197 1260 q 311 1264 264 1265 q 397 1261 358 1263 q 494 1256 486 1256 q 594 1253 550 1253 z "},"U":{"ha":1089,"x_min":44,"x_max":1033,"o":"m 1018 767 q 983 350 1033 517 q 831 114 935 200 q 741 58 792 81 q 641 25 690 36 q 542 11 592 14 q 242 94 364 3 q 83 333 132 178 q 53 490 61 408 q 47 625 44 572 q 56 750 49 678 q 60 790 57 764 q 64 828 63 817 q 64 839 64 831 q 226 1158 93 1144 q 297 1154 271 1161 q 334 1128 324 1147 q 345 1085 344 1108 q 340 1026 346 1061 q 326 958 333 992 q 313 883 318 925 q 308 806 307 842 q 310 692 308 756 q 309 560 311 628 q 319 428 307 492 q 351 315 331 364 q 419 240 372 267 q 532 222 465 214 q 644 250 600 219 q 708 333 689 281 q 735 454 728 386 q 740 599 742 522 q 737 751 739 675 q 740 896 735 828 q 760 1015 744 964 q 815 1096 776 1067 q 917 1122 854 1125 q 952 1111 938 1122 q 975 1082 967 1100 q 987 1049 983 1064 q 994 1011 990 1033 q 1014 814 1003 958 q 1018 767 1017 789 z "},"V":{"ha":901,"x_min":17,"x_max":861,"o":"m 806 1083 q 813 1081 808 1082 q 856 956 861 1056 q 829 819 853 908 q 785 675 806 731 q 731 515 764 618 q 666 327 697 411 q 597 174 635 243 q 510 43 556 94 q 449 11 474 4 q 433 19 440 14 q 419 30 425 24 q 406 46 414 36 q 395 61 399 56 q 385 78 392 67 q 376 92 378 89 q 279 267 331 161 q 82 825 181 464 q 32 1031 42 968 q 40 1151 17 1119 q 115 1169 68 1190 q 199 1100 165 1147 q 210 1083 204 1092 q 220 1063 215 1074 q 229 1045 225 1053 q 238 1025 233 1038 q 244 1006 242 1013 q 251 984 247 999 q 257 965 256 969 q 263 943 258 960 q 269 924 268 926 q 344 642 313 774 q 390 529 361 571 q 448 482 419 488 q 503 512 476 476 q 544 618 531 547 q 714 1047 608 949 q 806 1083 767 1096 z "},"W":{"ha":1213,"x_min":49,"x_max":1174,"o":"m 1136 1085 q 1154 910 1172 1067 q 1069 544 1136 753 q 928 192 1028 408 q 907 146 919 175 q 889 106 894 117 q 874 74 883 94 q 858 47 864 54 q 843 29 853 40 q 824 14 833 18 q 803 6 814 10 q 778 3 792 3 q 725 16 747 3 q 688 51 703 29 q 656 113 672 72 q 626 192 639 154 q 594 294 614 231 q 553 408 575 357 q 514 526 531 471 q 486 403 503 465 q 463 311 475 364 q 442 224 450 258 q 422 151 433 190 q 400 88 411 111 q 374 42 389 64 q 336 10 358 19 q 286 0 314 0 q 253 9 269 0 q 221 40 236 18 q 194 83 206 61 q 171 146 183 106 q 149 217 158 186 q 128 303 139 249 q 110 393 117 357 q 89 492 103 429 q 50 872 50 692 q 89 1067 50 1053 q 140 1081 117 1078 q 181 1074 164 1083 q 210 1055 197 1065 q 231 1017 222 1044 q 244 972 239 990 q 253 913 250 953 q 257 849 256 872 q 261 778 258 826 q 265 692 264 724 q 272 614 267 661 q 283 529 278 567 q 297 464 292 497 q 400 735 342 628 q 497 832 458 842 q 538 842 519 842 q 571 835 556 843 q 600 814 586 826 q 625 779 614 801 q 647 734 636 757 q 669 678 658 711 q 690 617 681 646 q 714 550 700 589 q 739 479 728 511 q 789 303 761 424 q 828 433 797 332 q 881 604 858 535 q 907 698 894 647 q 928 790 919 749 q 946 876 936 832 q 965 953 956 919 q 986 1017 975 986 q 1011 1067 997 1049 q 1043 1096 1025 1085 q 1085 1103 1061 1107 q 1136 1085 1108 1100 z "},"X":{"ha":1042,"x_min":-17,"x_max":990,"o":"m 614 631 q 890 228 789 406 q 956 24 990 50 q 850 54 932 6 q 646 215 768 103 q 414 469 524 328 q 302 616 349 553 q 207 749 256 679 q 131 872 158 819 q 88 972 104 924 q 76 1056 71 1021 q 108 1111 82 1090 q 180 1116 133 1139 q 305 1007 226 1093 q 442 849 383 921 q 614 631 500 776 m 575 407 q 329 180 456 279 q 119 40 203 81 q 14 19 36 0 q 95 213 -17 49 q 396 578 207 376 q 732 918 643 842 q 928 994 878 1043 q 949 942 949 975 q 931 866 950 910 q 878 772 911 822 q 797 660 846 721 q 695 539 749 600 q 575 407 642 478 z "},"Y":{"ha":1028,"x_min":65,"x_max":947,"o":"m 597 618 q 591 587 593 603 q 589 550 589 571 q 590 520 589 529 q 592 483 590 511 q 594 451 594 456 q 597 372 596 432 q 603 278 599 311 q 609 228 603 272 q 617 168 615 185 q 615 120 618 151 q 599 67 611 89 q 549 16 582 35 q 482 7 515 -3 q 390 163 408 28 q 393 436 379 257 q 399 522 399 497 q 394 593 400 546 q 368 674 388 640 q 321 741 350 706 q 271 797 292 776 q 211 854 250 818 q 74 1114 67 990 q 106 1183 78 1171 q 178 1192 142 1197 q 242 1167 215 1186 q 281 1121 261 1149 q 321 1054 300 1093 q 351 1001 342 1015 q 374 964 358 989 q 398 924 389 939 q 422 890 407 910 q 453 856 438 871 q 476 842 465 846 q 499 845 488 839 q 519 856 511 851 q 538 877 526 861 q 553 898 550 893 q 567 919 557 903 q 699 1088 633 1024 q 718 1106 704 1092 q 739 1126 732 1119 q 760 1146 746 1133 q 783 1164 774 1158 q 808 1177 793 1169 q 834 1188 822 1185 q 860 1190 846 1190 q 890 1186 875 1190 q 935 1151 922 1176 q 942 1099 947 1126 q 921 1043 938 1071 q 884 993 906 1017 q 832 942 863 969 q 788 899 801 914 q 613 661 658 763 q 597 618 603 640 z "},"Z":{"ha":946,"x_min":39,"x_max":921,"o":"m 794 248 q 855 234 794 248 q 918 169 915 221 q 804 71 921 117 q 519 13 688 25 q 301 15 400 3 q 149 54 201 26 q 114 54 126 44 q 147 266 76 83 q 354 678 217 449 q 626 1060 499 918 q 408 1036 529 1036 q 147 1075 256 1038 q 40 1164 39 1113 q 149 1252 40 1215 q 410 1288 257 1289 q 670 1250 563 1288 q 778 1160 778 1213 q 747 949 817 1132 q 539 538 676 767 q 336 238 436 367 q 504 263 415 256 q 794 248 672 275 z "},"a":{"ha":899,"x_min":53,"x_max":861,"o":"m 812 728 q 829 668 812 728 q 853 433 846 607 q 839 133 861 258 q 778 7 817 8 q 713 99 743 4 q 581 33 657 57 q 271 42 414 -15 q 107 183 163 85 q 56 411 53 279 q 106 622 61 525 q 226 786 150 719 q 381 868 299 844 q 536 875 464 892 q 692 783 631 854 q 739 849 713 847 q 812 728 778 850 m 539 211 q 653 228 594 214 q 631 400 636 306 q 639 604 625 515 q 511 636 569 638 q 356 569 432 635 q 300 489 322 539 q 276 386 278 439 q 294 294 275 329 q 356 240 313 261 q 539 211 428 204 z "},"b":{"ha":1017,"x_min":60,"x_max":964,"o":"m 908 599 q 956 350 964 478 q 856 115 946 201 q 761 51 813 74 q 656 18 710 28 q 478 19 569 4 q 261 114 346 43 q 207 -6 240 -3 q 167 0 185 -7 q 138 24 150 7 q 117 63 126 42 q 103 119 108 85 q 96 185 99 153 q 92 264 93 218 q 90 350 90 310 q 88 446 89 390 q 83 546 86 501 q 76 676 81 597 q 68 806 71 754 q 63 922 65 858 q 62 1028 60 986 q 69 1108 64 1069 q 89 1167 75 1147 q 122 1190 103 1188 q 193 1184 163 1196 q 241 1144 224 1172 q 269 1083 258 1117 q 283 1005 279 1050 q 290 921 288 960 q 294 835 292 882 q 299 758 296 788 q 322 781 310 769 q 372 819 354 806 q 428 847 390 832 q 504 863 465 863 q 738 794 625 865 q 908 599 849 732 m 635 344 q 660 412 658 367 q 638 500 663 457 q 574 565 613 544 q 486 593 531 590 q 410 576 447 594 q 350 529 374 558 q 336 511 343 521 q 332 318 342 401 q 478 299 410 297 q 635 344 589 299 z "},"c":{"ha":821,"x_min":24,"x_max":775,"o":"m 757 214 q 740 133 775 183 q 673 67 717 99 q 571 18 629 35 q 276 44 424 -24 q 124 165 185 88 q 36 383 49 258 q 71 617 24 510 q 190 781 111 711 q 465 896 313 886 q 675 854 639 907 q 688 808 694 831 q 658 774 682 786 q 597 744 633 761 q 518 713 560 726 q 435 672 476 699 q 359 616 393 646 q 303 537 325 586 q 281 428 282 488 q 313 318 279 365 q 403 251 347 271 q 497 244 443 240 q 599 256 551 247 q 692 257 647 265 q 757 214 736 249 z "},"d":{"ha":950,"x_min":32,"x_max":910,"o":"m 719 1164 q 818 1078 775 1164 q 882 865 861 993 q 906 588 903 738 q 894 310 910 439 q 841 94 879 181 q 749 4 803 7 q 685 90 715 3 q 553 29 629 50 q 247 36 390 -17 q 86 169 140 76 q 35 381 32 258 q 84 577 40 486 q 203 731 128 668 q 357 806 276 785 q 511 813 438 828 q 590 796 558 810 q 631 771 621 782 l 639 760 q 636 773 638 764 q 632 810 635 782 q 627 865 629 838 q 624 928 625 892 q 626 995 624 964 q 634 1058 628 1026 q 651 1113 640 1090 q 678 1150 661 1136 q 719 1164 696 1164 m 522 186 q 574 191 544 186 q 624 200 604 196 l 643 204 q 619 392 622 322 l 607 621 q 588 630 600 625 q 544 642 576 635 q 483 650 511 650 q 328 575 406 649 q 269 488 293 542 q 243 376 246 433 q 264 276 242 315 q 328 217 282 240 q 522 186 404 179 z "},"e":{"ha":897,"x_min":38,"x_max":881,"o":"m 861 479 q 842 443 854 458 q 797 411 825 425 q 750 392 769 397 q 697 378 731 386 q 326 343 522 333 q 301 342 319 343 q 268 344 282 342 q 244 351 254 346 q 282 271 247 311 q 356 214 317 231 q 542 236 442 176 q 682 236 628 286 q 708 141 728 189 q 637 56 688 93 q 539 10 586 18 q 318 39 426 -8 q 186 135 249 71 q 86 285 124 199 q 48 415 58 347 q 51 562 38 482 q 104 710 64 642 q 278 865 169 814 q 496 901 386 915 q 666 838 593 889 q 788 719 739 788 q 842 621 819 675 q 861 479 879 533 m 483 576 q 699 574 613 590 q 629 657 667 621 q 465 733 551 731 q 370 710 419 736 q 294 640 321 685 q 264 524 264 592 q 483 576 344 561 z "},"f":{"ha":899,"x_min":40,"x_max":857,"o":"m 850 918 q 854 868 857 885 q 835 846 851 851 q 790 846 813 836 q 754 869 767 856 q 713 902 742 882 q 653 933 685 922 q 501 918 571 963 q 443 851 468 897 q 406 751 413 792 q 389 643 396 701 q 470 640 417 640 q 563 638 524 640 q 644 629 603 636 q 706 604 685 622 q 728 557 728 586 q 711 510 726 529 q 674 483 696 492 q 617 469 653 474 q 553 463 582 464 q 481 463 524 463 q 414 460 439 463 q 419 344 413 421 q 424 238 425 267 q 423 174 424 214 q 422 118 422 135 q 415 77 421 101 q 399 43 410 53 q 366 25 388 33 q 313 15 344 17 q 281 22 293 14 q 263 52 269 31 q 252 95 256 74 q 242 158 249 117 q 229 232 236 200 q 197 461 204 371 q 83 496 126 472 q 40 548 40 519 q 83 600 40 576 q 196 635 125 624 q 214 792 200 715 q 278 963 235 890 q 340 1040 301 1004 q 418 1094 378 1076 q 532 1124 472 1121 q 640 1114 592 1128 q 725 1074 688 1100 q 813 994 779 1036 q 850 918 846 951 z "},"g":{"ha":928,"x_min":32,"x_max":913,"o":"m 753 847 q 861 746 825 847 q 900 378 913 603 q 897 319 900 368 q 894 253 894 269 q 890 194 893 236 q 882 128 886 153 q 871 71 878 104 q 854 8 864 38 q 686 -211 811 -129 q 406 -268 561 -293 q 254 -212 325 -257 q 99 -46 158 -151 q 60 46 72 3 q 51 113 49 89 q 68 142 54 136 q 113 129 85 149 q 197 60 140 110 q 226 35 217 43 q 361 -58 303 -32 q 518 -69 439 -90 q 578 -42 553 -60 q 619 -8 604 -25 q 646 40 635 10 q 663 90 657 69 q 675 147 668 110 q 678 167 676 157 q 658 155 672 164 q 638 143 643 146 q 617 135 632 140 q 586 125 603 129 q 260 132 411 82 q 88 258 146 171 q 35 460 32 343 q 87 647 40 561 q 214 792 133 733 q 376 865 290 844 q 540 871 463 885 q 704 789 640 853 q 753 847 725 847 m 547 303 q 592 304 565 304 q 636 306 619 304 q 668 310 653 307 q 649 485 657 353 q 667 679 643 560 q 514 710 583 711 q 329 646 419 708 q 263 569 290 617 q 235 471 236 521 q 257 383 232 417 q 329 331 278 351 q 547 303 415 297 z "},"h":{"ha":853,"x_min":35,"x_max":806,"o":"m 586 411 l 574 492 l 586 411 m 794 374 q 797 318 794 356 q 801 269 800 286 q 804 222 803 253 q 805 174 806 190 q 803 131 804 157 q 797 91 801 106 q 787 58 793 76 q 771 28 781 39 q 749 8 761 18 q 720 -6 738 -3 q 682 -10 703 -10 q 643 -2 658 -8 q 621 14 628 4 q 612 42 614 24 q 611 77 610 61 q 614 121 613 93 q 615 169 615 149 q 597 344 615 257 q 525 497 571 482 q 415 518 461 519 q 318 468 353 515 q 293 424 306 451 q 258 322 265 369 q 259 228 256 278 q 266 147 263 178 q 267 86 269 117 q 253 40 265 56 q 209 16 240 25 q 126 8 178 7 q 88 27 104 8 q 63 85 72 46 q 47 167 53 125 q 39 278 42 210 q 35 401 36 347 q 36 538 35 454 q 37 644 36 601 q 39 747 38 688 q 43 848 40 807 q 51 936 46 889 q 63 1015 56 983 q 81 1073 71 1046 q 105 1113 90 1100 q 136 1126 119 1126 q 184 1117 163 1126 q 220 1090 206 1108 q 245 1050 235 1072 q 261 995 256 1028 q 270 933 267 963 q 274 860 274 903 q 276 785 275 818 q 276 705 276 751 q 276 625 276 658 q 389 689 322 667 q 671 639 536 738 q 763 517 731 594 q 794 374 789 456 z "},"i":{"ha":335,"x_min":57,"x_max":269,"o":"m 178 6 q 135 8 153 0 q 106 43 117 17 q 88 94 94 69 q 75 168 81 119 q 68 247 69 217 q 67 342 67 278 q 64 353 64 350 q 63 431 64 403 q 61 507 61 458 q 63 586 61 556 q 68 656 64 617 q 79 719 72 694 q 96 767 86 744 q 119 800 106 789 q 153 811 133 811 q 206 796 183 811 q 239 754 228 781 q 257 693 250 728 q 265 618 264 658 q 267 535 267 578 q 265 447 267 492 q 264 361 264 403 q 268 226 269 289 q 261 117 267 164 q 235 40 256 69 q 178 6 214 11 m 88 928 q 73 943 88 928 q 58 1001 58 958 q 88 1076 58 1044 q 158 1108 117 1108 q 231 1076 200 1108 q 261 1001 261 1044 q 231 928 261 958 q 158 897 200 897 q 88 928 117 897 z "},"j":{"ha":850,"x_min":31,"x_max":750,"o":"m 58 -7 q 103 -5 81 4 q 140 -26 126 -14 q 180 -56 154 -39 q 232 -79 206 -72 q 382 -71 313 -99 q 431 -39 414 -60 q 474 29 449 -18 q 504 144 496 69 q 512 271 513 219 q 505 418 511 322 q 497 519 499 514 q 500 658 492 606 q 529 721 508 711 q 565 731 549 729 q 594 726 581 733 q 617 710 607 718 q 638 679 626 701 q 656 642 649 657 q 675 596 663 628 q 686 569 682 578 q 739 353 718 490 q 748 233 746 306 q 742 74 750 161 q 713 -64 733 -12 q 568 -223 671 -167 q 348 -276 465 -279 q 142 -215 231 -272 q 69 -145 96 -185 q 39 -72 43 -106 q 58 -7 31 -15 m 442 907 q 426 922 442 907 q 410 981 410 938 q 442 1054 410 1024 q 518 1085 474 1085 q 594 1054 563 1085 q 626 981 626 1024 q 594 907 626 938 q 518 876 563 876 q 442 907 474 876 z "},"k":{"ha":736,"x_min":40,"x_max":732,"o":"m 506 369 q 679 213 626 293 q 683 74 732 132 q 626 36 658 43 q 555 45 594 29 q 474 90 515 61 q 378 168 432 119 q 247 307 310 228 q 248 218 246 265 q 254 142 250 171 q 258 83 258 113 q 250 39 257 54 q 224 13 243 24 q 171 3 204 3 q 127 20 146 3 q 96 80 108 38 q 75 161 83 122 q 62 277 67 200 q 54 405 57 354 q 49 556 51 456 q 44 672 46 629 q 42 785 43 715 q 41 899 40 856 q 44 997 42 942 q 51 1087 46 1053 q 63 1153 56 1121 q 83 1202 71 1186 q 111 1221 94 1218 q 168 1214 144 1226 q 205 1173 192 1201 q 225 1110 218 1144 q 234 1026 232 1075 q 236 932 236 976 q 238 831 236 888 q 243 733 239 775 q 259 749 247 738 q 276 768 271 761 q 380 864 325 826 q 478 912 435 901 q 556 919 522 922 q 607 900 590 917 q 623 853 622 885 q 611 784 624 822 q 562 702 599 746 q 471 624 525 658 q 282 514 418 590 q 341 483 310 504 q 420 428 372 463 q 506 369 468 394 z "},"l":{"ha":376,"x_min":33,"x_max":325,"o":"m 167 -7 q 109 33 133 -7 q 71 151 85 74 q 49 317 57 228 q 38 529 42 407 q 49 849 33 682 q 100 1138 65 1017 q 179 1260 135 1260 q 222 1246 203 1260 q 253 1203 240 1232 q 277 1140 267 1174 q 294 1056 288 1107 q 304 963 300 1006 q 311 857 308 919 q 315 750 314 794 q 317 640 315 706 q 319 538 318 574 q 305 265 324 390 q 249 67 286 140 q 167 -7 213 -6 z "},"m":{"ha":946,"x_min":33,"x_max":914,"o":"m 910 413 q 907 146 914 344 q 892 32 904 63 q 840 -7 881 1 q 790 -5 811 -11 q 756 13 768 1 q 735 47 744 24 q 724 85 726 71 q 717 128 721 100 q 714 149 715 142 q 701 321 711 163 q 669 528 690 479 q 636 586 650 568 q 606 603 622 604 q 571 576 590 601 q 556 453 551 551 q 566 313 557 429 q 574 164 575 197 q 573 119 574 146 q 572 78 572 92 q 569 47 571 65 q 561 22 567 29 q 546 6 556 14 q 520 -6 536 -3 q 483 -6 504 -8 q 447 2 461 -4 q 426 17 433 8 q 417 43 419 26 q 415 75 415 60 q 415 117 415 90 q 411 164 414 143 q 410 293 408 188 q 408 429 413 399 q 388 509 401 471 q 367 557 374 547 q 242 497 272 668 q 231 379 233 447 q 231 259 231 374 q 228 139 232 144 q 228 111 226 132 q 228 73 229 90 q 219 38 226 56 q 191 8 213 19 q 135 -6 169 -4 q 103 3 117 -6 q 79 30 89 11 q 63 69 69 49 q 51 122 56 89 q 44 183 47 156 q 40 253 42 210 q 38 324 39 296 q 38 399 38 353 q 38 472 38 446 q 36 538 36 494 q 34 659 33 604 q 40 753 35 714 q 63 814 46 792 q 107 838 79 836 q 158 828 142 840 q 173 795 174 815 q 171 753 172 775 q 228 793 197 778 q 388 813 315 838 q 486 710 460 788 q 506 736 494 724 q 577 785 532 769 q 674 797 622 801 q 789 765 750 790 q 864 676 828 740 q 882 632 874 657 q 894 588 890 607 q 902 540 899 569 q 906 496 906 510 q 908 450 907 482 q 910 413 910 418 z "},"n":{"ha":893,"x_min":29,"x_max":844,"o":"m 832 417 q 785 28 844 131 q 711 0 764 -8 q 571 475 571 11 q 500 583 571 539 q 347 561 414 635 q 305 472 317 525 q 288 356 293 419 q 278 231 282 293 q 265 117 275 168 q 228 33 256 65 q 156 1 201 1 q 66 124 103 1 q 30 421 29 247 q 68 717 31 594 q 157 840 106 840 q 232 758 199 840 q 318 801 272 785 q 511 814 407 833 q 689 735 610 797 q 732 697 718 711 q 767 651 753 674 q 806 567 792 611 q 832 417 828 496 z "},"o":{"ha":872,"x_min":39,"x_max":829,"o":"m 818 429 q 790 227 829 322 q 681 79 751 132 q 492 8 600 18 q 294 35 383 -3 q 79 228 150 92 q 40 403 39 299 q 90 601 40 507 q 258 769 151 715 q 388 805 317 800 q 522 788 460 810 q 636 731 578 769 q 729 646 692 693 q 818 429 804 551 m 601 272 q 650 347 635 301 q 653 442 665 393 q 598 533 642 493 q 485 593 554 574 q 368 590 424 610 q 276 524 313 569 q 234 433 243 482 q 240 347 225 383 q 303 267 260 300 q 407 221 346 233 q 512 225 458 210 q 601 272 565 240 z "},"p":{"ha":888,"x_min":25,"x_max":854,"o":"m 806 265 q 768 204 790 232 q 721 154 747 176 q 668 119 696 135 q 563 81 619 93 q 464 69 515 69 q 378 75 421 68 q 325 86 350 79 q 279 101 301 93 q 242 119 260 110 q 236 -79 239 68 q 233 -149 236 -122 q 219 -215 231 -190 q 197 -250 211 -236 q 160 -267 181 -265 q 131 -264 144 -269 q 106 -247 117 -258 q 81 -193 88 -228 q 71 -93 75 -172 q 67 -41 69 -75 q 63 7 64 -7 q 56 847 25 544 q 72 899 57 861 q 112 932 82 922 q 164 922 142 942 q 189 875 182 904 q 201 818 200 822 q 232 847 215 833 q 272 876 250 864 q 322 899 296 890 q 417 914 367 914 q 624 857 514 915 q 779 711 719 807 q 847 501 839 615 q 806 265 854 386 m 563 439 q 568 503 575 465 q 538 571 561 539 q 486 621 515 603 q 356 654 418 660 q 281 631 317 650 q 284 567 285 592 q 281 492 283 542 q 278 414 278 443 q 278 365 278 389 q 378 363 332 360 q 521 397 467 368 q 563 439 553 415 z "},"q":{"ha":899,"x_min":33,"x_max":822,"o":"m 735 960 q 786 908 767 954 q 812 786 806 863 q 820 607 818 710 q 821 383 822 504 q 819 328 821 347 q 819 304 819 319 q 818 140 819 193 q 813 1 817 86 q 801 -125 810 -83 q 776 -213 792 -167 q 737 -278 761 -260 q 679 -297 713 -297 q 622 -216 636 -299 q 600 65 608 -133 q 597 129 599 107 q 529 100 565 113 q 238 108 372 53 q 83 249 136 151 q 36 471 33 342 q 83 679 42 583 q 196 840 124 775 q 342 920 265 897 q 488 928 419 943 q 633 839 575 907 q 670 933 644 900 q 735 960 696 965 m 565 378 q 582 657 565 536 q 478 686 525 686 q 353 626 414 685 q 308 556 326 600 q 289 467 290 513 q 304 386 288 417 q 353 339 318 357 q 500 313 411 308 q 565 321 532 315 q 565 378 564 350 z "},"r":{"ha":697,"x_min":78,"x_max":647,"o":"m 546 763 q 619 739 593 754 q 646 707 644 724 q 626 652 647 672 q 575 625 604 632 q 498 606 546 618 q 421 582 450 594 q 338 518 371 560 q 294 427 306 476 q 283 328 282 378 q 296 235 283 279 q 303 202 300 219 q 308 156 306 185 q 305 102 311 126 q 285 55 299 78 q 242 19 272 32 q 168 7 211 6 q 133 24 149 7 q 108 73 117 40 q 92 142 99 106 q 83 228 86 178 q 79 320 81 279 q 78 415 78 361 q 106 654 78 556 q 174 753 133 753 q 233 675 207 753 q 274 707 253 692 q 374 753 319 738 q 469 767 428 768 q 546 763 510 767 z "},"s":{"ha":668,"x_min":19,"x_max":632,"o":"m 29 206 q 58 228 43 226 q 92 217 74 229 q 130 192 110 206 q 181 171 150 179 q 247 167 213 163 q 339 201 294 175 q 403 263 383 226 q 414 347 425 300 q 400 369 411 358 q 354 400 385 385 q 283 433 338 408 q 193 476 228 457 q 99 557 132 513 q 58 694 54 618 q 149 889 64 814 q 304 960 214 947 q 428 950 372 967 q 518 903 483 933 q 544 868 536 886 q 552 838 553 850 q 547 819 551 826 q 513 788 535 790 q 467 799 492 786 q 406 817 442 813 q 328 807 371 822 q 247 693 240 769 q 254 679 249 686 q 289 656 265 668 q 358 626 306 647 q 446 588 411 604 q 544 517 507 556 q 611 389 599 463 q 561 157 632 254 q 408 33 497 69 q 242 6 319 -3 q 124 45 176 13 q 46 110 72 78 q 24 151 29 129 q 22 185 19 172 q 29 206 25 199 z "},"t":{"ha":765,"x_min":11,"x_max":747,"o":"m 463 736 q 744 642 739 731 q 694 585 747 601 q 474 544 614 561 q 460 185 467 244 q 376 13 444 32 q 371 13 374 13 q 300 78 325 10 q 264 444 268 168 q 263 492 264 458 q 261 536 263 521 q 158 547 188 539 q 61 576 104 558 q 18 631 11 597 q 100 694 24 671 q 272 725 131 704 q 276 831 274 761 q 284 988 281 938 q 297 1100 288 1038 q 324 1189 306 1164 q 371 1214 342 1214 q 403 1201 389 1214 q 426 1163 417 1189 q 440 1108 435 1136 q 449 1033 446 1082 q 454 946 453 983 q 458 844 456 908 q 463 736 461 779 z "},"u":{"ha":846,"x_min":38,"x_max":799,"o":"m 725 853 q 747 847 738 850 q 764 838 757 844 q 775 824 771 831 q 783 803 779 817 q 788 779 786 790 q 790 746 789 768 q 792 706 792 724 q 793 656 792 688 q 794 596 794 624 q 797 491 796 543 q 786 368 799 439 q 749 231 774 297 q 605 53 706 119 q 399 4 504 -12 q 206 90 293 15 q 78 276 119 164 q 45 422 53 349 q 41 544 38 496 q 56 651 44 592 q 102 845 79 794 q 165 899 125 896 q 222 894 200 901 q 252 874 243 886 q 263 835 261 861 q 263 783 265 808 q 258 714 261 757 q 257 635 256 671 q 300 376 263 454 q 311 352 303 369 q 322 329 319 335 q 332 311 325 324 q 344 294 339 299 q 357 282 349 290 q 374 270 365 274 q 395 263 383 267 q 422 258 407 260 q 481 262 460 254 q 513 283 503 269 q 543 333 524 296 q 547 340 546 338 q 611 601 593 425 q 618 682 614 631 q 621 717 619 706 q 624 749 622 729 q 628 776 626 768 q 633 799 631 785 q 640 820 636 814 q 650 835 644 826 q 663 847 656 843 q 679 853 669 850 q 700 856 689 856 q 725 853 711 856 z "},"v":{"ha":719,"x_min":33,"x_max":679,"o":"m 625 824 q 669 778 660 813 q 661 671 679 743 q 626 545 643 599 q 568 383 608 492 q 567 381 567 382 q 360 21 460 92 q 222 75 281 -36 q 110 375 160 193 q 86 464 96 428 q 65 546 76 500 q 49 623 54 592 q 38 690 43 654 q 34 749 33 725 q 40 793 35 772 q 56 826 44 814 q 83 843 67 839 q 146 800 108 851 q 224 652 183 749 q 297 438 264 556 q 332 289 318 361 q 386 463 353 374 q 516 731 447 628 q 625 824 585 835 z "},"w":{"ha":964,"x_min":42,"x_max":924,"o":"m 840 831 q 848 833 840 831 q 874 833 856 836 q 905 814 893 829 q 920 770 917 799 q 923 708 924 742 q 915 626 922 675 q 898 528 907 576 q 874 413 889 479 q 816 194 849 292 q 752 47 783 97 q 699 6 721 -4 q 646 43 676 -6 q 583 185 615 92 q 525 393 551 278 q 510 471 517 432 q 496 407 504 439 q 438 197 471 290 q 374 55 406 103 q 321 17 343 7 q 267 54 300 6 q 197 198 233 103 q 129 411 160 293 q 103 509 118 456 q 78 597 88 563 q 58 669 68 631 q 44 731 47 707 q 42 778 42 756 q 53 813 43 800 q 79 833 63 826 q 188 770 138 854 q 286 499 238 686 q 315 374 303 436 q 338 483 325 428 q 371 610 356 565 q 413 714 386 656 q 458 793 436 768 q 458 794 458 794 q 479 811 468 806 q 474 811 481 813 q 547 785 510 821 q 610 686 583 749 q 656 568 638 624 q 685 468 675 513 q 699 404 692 436 q 714 486 706 446 q 739 599 729 557 q 762 688 749 642 q 785 759 775 735 q 810 804 796 783 q 840 831 824 825 z "},"x":{"ha":771,"x_min":11,"x_max":715,"o":"m 510 475 q 667 199 618 321 q 678 49 715 78 q 557 83 644 24 q 363 261 469 143 q 177 64 263 132 q 57 19 92 -4 q 59 174 17 46 q 203 465 101 301 q 56 730 100 614 q 47 874 11 846 q 163 842 79 897 q 350 674 247 786 q 526 857 446 794 q 642 897 607 919 q 641 752 679 872 q 510 475 603 632 z "},"y":{"ha":881,"x_min":35,"x_max":811,"o":"m 801 522 q 810 371 808 438 q 801 199 811 304 q 765 -6 790 93 q 747 -61 754 -40 q 722 -112 739 -82 q 685 -169 706 -143 q 533 -260 625 -231 q 388 -271 456 -279 q 265 -231 321 -262 q 189 -158 217 -201 q 158 -76 161 -114 q 161 -28 154 -46 q 178 -8 168 -10 q 198 -20 186 -7 q 222 -51 210 -33 q 260 -86 235 -68 q 318 -111 286 -104 q 483 -97 399 -133 q 554 -49 531 -79 q 594 47 575 -22 q 622 171 608 104 q 357 82 503 78 q 178 139 256 85 q 65 279 103 190 q 40 383 46 328 q 37 467 35 439 q 46 549 39 496 q 73 691 58 646 q 106 747 88 736 q 161 757 124 758 q 239 550 250 754 q 278 375 233 438 q 306 338 294 350 q 335 313 317 325 q 374 297 353 300 q 485 301 450 286 q 553 363 521 315 q 571 422 561 375 q 592 523 581 469 q 619 629 603 576 q 667 713 636 682 q 739 736 699 743 q 779 694 769 731 q 799 560 789 657 q 801 522 800 536 z "},"z":{"ha":894,"x_min":10,"x_max":826,"o":"m 429 233 q 709 207 593 238 q 826 129 825 176 q 712 45 826 82 q 434 3 597 8 q 155 29 271 -1 q 38 107 39 60 q 97 275 10 143 q 333 557 183 407 q 569 761 457 681 q 417 771 496 760 q 183 837 278 790 q 92 931 88 883 q 200 998 97 978 q 442 999 303 1018 q 677 932 582 979 q 767 838 772 885 q 709 671 796 803 q 471 388 622 539 q 286 221 376 293 q 429 233 356 231 z "}}}
